<?xml version="1.0" encoding="utf-8"?>
<!-- Generator: Adobe Illustrator 18.0.0, SVG Export Plug-In . SVG Version: 6.00 Build 0)  -->
<!DOCTYPE svg PUBLIC "-//W3C//DTD SVG 1.1//EN" "http://www.w3.org/Graphics/SVG/1.1/DTD/svg11.dtd">
<svg version="1.1" id="Layer_1" xmlns="http://www.w3.org/2000/svg" xmlns:xlink="http://www.w3.org/1999/xlink" x="0px" y="0px"
	 viewBox="0 0 155 25" enable-background="new 0 0 155 25" xml:space="preserve">
<g>
	<g>
		<g>
			<g>
				<path fill="#00B3E3" d="M29.2,21.9c-2.5,0-4.7-0.9-6.6-2.7c-1.4-1.4-2.8-2.8-4.2-4.1c-0.7-0.7-1.4-1.3-2-2
					c-0.1-0.1-1.4-1.4-1.6-1.5c-0.5-0.4-0.6-1.2-0.1-1.7c0.4-0.5,1.2-0.6,1.8-0.2c0.2,0.1,1.7,1.6,1.7,1.6c0.7,0.7,1.4,1.3,2,2
					c1.4,1.3,2.8,2.7,4.2,4.1c1.7,1.7,3.8,2.3,6.2,1.9c1.6-0.3,2.6-0.7,3.7-2c0.3-0.4,0.6-0.8,0.8-1.2c0.3-0.6,1.1-0.9,1.7-0.5
					c0.6,0.3,0.9,1.1,0.5,1.7c-0.3,0.6-0.7,1.2-1.1,1.7c-1.5,1.8-3,2.5-5.1,2.9C30.4,21.8,29.8,21.9,29.2,21.9z"/>
				<path fill="#00B3E3" d="M36.1,9.3c-0.4,0-0.8-0.2-1.1-0.6c-0.4-0.6-0.9-1.2-1.5-1.6c-2.5-2.1-6.2-2-8.8,0.1
					c-0.2,0.1-0.3,0.3-0.5,0.5c-0.1,0.1-0.1,0.1-0.2,0.2c-0.5,0.5-1.3,0.4-1.8-0.1c-0.5-0.5-0.4-1.3,0.1-1.8
					c0.1-0.1,0.1-0.1,0.2-0.2c0.2-0.2,0.4-0.4,0.7-0.6c1.7-1.4,3.8-2.1,5.9-2.2c0,0,0,0,0,0c2.2,0,4.3,0.7,6,2.1
					c0.8,0.6,1.5,1.4,2,2.2c0.4,0.6,0.2,1.4-0.4,1.7C36.6,9.3,36.4,9.3,36.1,9.3z"/>
			</g>
		</g>
		<g>
			<path fill="#00B3E3" d="M14.1,21.5c1.8-0.5,3.3-1.4,4.4-2.7c0.5-0.5,0.4-1.3-0.1-1.8c-0.5-0.5-1.3-0.4-1.8,0.1
				c-0.8,1-1.9,1.6-3.2,1.9c-1.9,0.5-4,0.2-5.7-0.9c-1.7-1.1-2.7-2.8-3-4.8C4.5,11.7,4.9,9.8,6,8.3c1.1-1.5,2.7-2.4,4.6-2.7
				c2.3-0.3,4.3,0.4,5.9,2c1.9,1.8,3.7,3.7,5.6,5.6c0,0,0.1,0.1,0.2,0.2c0.7,0.7,0.8,0.8,0.9,0.9c0.5,0.4,1.3,0.4,1.8-0.2
				c0.4-0.5,0.4-1.3-0.2-1.7c-0.1-0.1-0.5-0.5-0.7-0.7c-0.1-0.1-0.2-0.2-0.2-0.2c-1.9-1.9-3.8-3.7-5.6-5.5c-2.2-2.2-5-3.1-8-2.7
				C7.7,3.6,5.5,4.8,4,6.9c-1.5,2-2.1,4.5-1.8,7c0.4,2.7,1.9,5,4.1,6.5c1.6,1,3.4,1.5,5.2,1.5C12.5,21.9,13.3,21.8,14.1,21.5z"/>
		</g>
	</g>
	<g>
		<path fill="#FFFFFF" d="M56,4c4.9,0,8.5,3.7,8.5,8.6c0,4.8-3.9,8.5-8.9,8.5c-4.4,0-8.2-3.3-8.2-8.2C47.4,6.9,51.7,4,56,4z
			 M56.3,20c3.2,0,5.3-2.6,5.3-6.5c0-4.2-2-8.5-6-8.5c-2.9,0-5.2,2.2-5.2,6.5C50.3,15.9,52.4,20,56.3,20z"/>
		<path fill="#FFFFFF" d="M82.1,20.9h-1c-0.7-1-1.4-1.8-1.9-2.3l-10-10.3v8.4c0,2.2,1,3.1,2.9,3.1v0.9h-6.9v-0.9
			c2.1,0,2.9-0.7,2.9-2.6v-10L67,6.2c-0.8-0.7-1.3-0.9-2.2-1V4.2h3.9l12.4,12.5V8.9c0-1.9-0.4-3.7-2.9-3.7V4.2h6.5v0.9
			c-1.8,0-2.6,1.5-2.6,3.7"/>
		<path fill="#FFFFFF" d="M100,8.9C98.9,6.5,96.7,5,94.3,5c-3.3,0-6.4,2.4-6.4,7.3c0,4.1,2.4,7.7,6.7,7.7c2.7,0,4.8-1.3,5.4-4.1h0.9
			l-0.1,3.8C99,20.5,96.2,21,94.2,21c-5.4,0-9.2-3.4-9.2-8.3C85,8.5,88.1,4,94.6,4c1.8,0,3.7,0.4,5.7,1.1l0.6,3.8H100z"/>
		<path fill="#FFFFFF" d="M113.1,14.3h-6.4l-0.9,2.3c-0.7,1.7-0.1,3.1,1.8,3.2v0.9H102v-0.9c1.3-0.3,1.6-1,2.3-2.7L109.2,5l-0.4-0.8
			h2.6l6,14c0.5,1.1,0.9,1.6,1.8,1.6v0.9h-6.8v-0.9c1.9-0.2,2.4-1.1,1.8-2.6L113.1,14.3z M109.8,6.5l-2.6,6.6h5.3L109.8,6.5z"/>
		<path fill="#FFFFFF" d="M124.9,17.6c0,1.5,0.7,2.3,2.5,2.3v0.9h-7.5v-0.9c2.1,0,2.4-1.2,2.4-2.8V7.5c0-1.6-0.7-2.4-2.4-2.4V4.2
			h7.9c4.5,0,6.2,1.9,6.2,4.3c0,1.8-1.2,3.6-4.5,4.1l3.5,3.9c1.8,2.1,3.1,3.2,4,3.2v0.9H135c-1.7,0-2.5-0.5-4.3-2.8l-3.2-4
			c-0.6-0.7-0.8-1-1.9-1h-0.7V17.6z M127.1,11.9c2.7,0,3.9-1.2,3.9-3.1c0-1.8-1.3-3.5-4.3-3.5h-1.9v6.6H127.1z"/>
		<path fill="#FFFFFF" d="M151.7,20.7h-14.2v-0.9c1.8,0,2.6-0.7,2.6-2.5V7.6c0-1.6-0.6-2.5-2.6-2.5V4.2h14v3.7h-0.9
			c-0.9-2.2-2.1-2.6-4.1-2.6h-3.9v6.3h3.2c2.3,0,3.1-0.6,3.2-2.3h1v5.8h-1c-0.3-1.8-1.1-2.5-3.2-2.5h-3.3v4c0,2.3,0.7,3,2.8,3h1.2
			c2.7,0,3.9-0.7,5-3h1.1L151.7,20.7z"/>
	</g>
</g>
</svg>
