<svg id="Layer_1" data-name="Layer 1" xmlns="http://www.w3.org/2000/svg" viewBox="0 0 35.36 18.9"><defs><style>.cls-1{fill:#00b3e3;}</style></defs><title>logofooter</title><path class="cls-1" d="M27.08,18.9a9.31,9.31,0,0,1-6.6-2.7c-1.4-1.4-2.8-2.8-4.2-4.1-.7-.7-1.4-1.3-2-2-.1-.1-1.4-1.4-1.6-1.5a1.15,1.15,0,0,1-.1-1.7,1.36,1.36,0,0,1,1.8-.2c.2.1,1.7,1.6,1.7,1.6.7.7,1.4,1.3,2,2,1.4,1.3,2.8,2.7,4.2,4.1a6.75,6.75,0,0,0,6.2,1.9,5.49,5.49,0,0,0,3.7-2,8.34,8.34,0,0,0,.8-1.2,1.25,1.25,0,0,1,2.2,1.2,9.91,9.91,0,0,1-1.1,1.7A7.86,7.86,0,0,1,29,18.9,12,12,0,0,0,27.08,18.9Z"/><path class="cls-1" d="M34,6.3a1.38,1.38,0,0,1-1.1-.6,5.72,5.72,0,0,0-1.5-1.6,6.94,6.94,0,0,0-8.8.1c-.2.1-.3.3-.5.5l-.2.2A1.27,1.27,0,1,1,20.18,3l.2-.2a4.35,4.35,0,0,1,.7-.6A10,10,0,0,1,27,0h0a9.34,9.34,0,0,1,6,2.1,8.33,8.33,0,0,1,2,2.2,1.17,1.17,0,0,1-.4,1.7C34.47,6.3,34.28,6.3,34,6.3Z"/><path class="cls-1" d="M12,18.5a8.67,8.67,0,0,0,4.4-2.7,1.27,1.27,0,0,0-1.9-1.7,5.55,5.55,0,0,1-3.2,1.9,7.19,7.19,0,0,1-5.7-.9,6.73,6.73,0,0,1-3-4.8,7.17,7.17,0,0,1,1.3-5,6.86,6.86,0,0,1,4.6-2.7,6.77,6.77,0,0,1,5.9,2c1.9,1.8,3.7,3.7,5.6,5.6l.2.2.9.9a1.28,1.28,0,0,0,1.8-.2,1.16,1.16,0,0,0-.2-1.7L22,8.7l-.2-.2C19.87,6.6,18,4.8,16.17,3a9.25,9.25,0,0,0-8-2.7,8.72,8.72,0,0,0-6.3,3.6,9.67,9.67,0,0,0-1.8,7,9.51,9.51,0,0,0,4.1,6.5,9.8,9.8,0,0,0,5.2,1.5A7.1,7.1,0,0,0,12,18.5Z"/></svg>